<?xml version="1.0" encoding="UTF-8" standalone="no"?>
<!-- Created with Inkscape (http://www.inkscape.org/) -->

<svg
   width="262.80597"
   height="331.52148"
   viewBox="0 0 69.534078 87.715062"
   version="1.1"
   id="svg1664"
   inkscape:version="1.1 (c68e22c387, 2021-05-23)"
   sodipodi:docname="axe.svg"
   xmlns:inkscape="http://www.inkscape.org/namespaces/inkscape"
   xmlns:sodipodi="http://sodipodi.sourceforge.net/DTD/sodipodi-0.dtd"
   xmlns="http://www.w3.org/2000/svg"
   xmlns:svg="http://www.w3.org/2000/svg">
  <sodipodi:namedview
     id="namedview1666"
     pagecolor="#e5e5e5"
     bordercolor="#666666"
     borderopacity="1.0"
     inkscape:pageshadow="2"
     inkscape:pageopacity="0"
     inkscape:pagecheckerboard="true"
     inkscape:document-units="mm"
     showgrid="false"
     units="px"
     inkscape:zoom="0.74118967"
     inkscape:cx="34.404149"
     inkscape:cy="19.563144"
     inkscape:window-width="1920"
     inkscape:window-height="1017"
     inkscape:window-x="1912"
     inkscape:window-y="-8"
     inkscape:window-maximized="1"
     inkscape:current-layer="layer1"
     fit-margin-top="0"
     fit-margin-left="0"
     fit-margin-right="0"
     fit-margin-bottom="0" />
  <defs
     id="defs1661" />
  <g
     inkscape:label="Layer 1"
     inkscape:groupmode="layer"
     id="layer1"
     transform="translate(38.693722,30.29263)">
    <path
       style="fill:#000000;fill-opacity:1;fill-rule:evenodd;stroke:none;stroke-width:0.503719px;stroke-linecap:butt;stroke-linejoin:miter;stroke-opacity:1"
       d="m -27.106392,-30.29263 v 9.05683 c 0,0 4.06379,0.40352 7.19048,1.05833 3.12669,0.65481 6.43662,0 6.43662,0 l 2.05105,-1.05833 h 5.2260497 c 0,0 1.6817,9.1422 -4.9862997,16.7410996 0,0 -3.2993,-8.9048996 -9.973,-8.9048996 -2.7907,0 -4.684,0.6961 -5.9449,1.5059 v 55.43483 l 0.8129,1.18127 v 9.6093 l -1.9673,3.09073 -1.9673,-3.09073 v -9.6093 l 0.8128,-1.18127 V -9.8846004 c 0,-8.1493096 -7.69093,-9.7683896 -7.69093,-9.7683896 l -1.5875,-1.58281 h 9.27843 v -5.3273 z"
       id="path6193"
       inkscape:connector-curvature="0"
       sodipodi:nodetypes="cczccccscccccccccccccc" />
    <path
       style="fill:#000000;fill-opacity:1;fill-rule:evenodd;stroke:none;stroke-width:0.503719px;stroke-linecap:butt;stroke-linejoin:miter;stroke-opacity:1"
       d="m 11.863808,-17.0635 v 6.411 h 18.7875 c 0,0 1.6817,9.1421996 -4.9863,16.7410996 0,0 -3.1241,-8.9049 -7.8563,-8.9049 -4.7322,0 -5.9449,1.5059 -5.9449,1.5059 V 54.3317 l -1.1544,2.0324 -1.1545003,-2.0324 V 0.69869962 L 1.3348077,-10.6525 h 8.2201 v -3.7398 z"
       id="path6193-1"
       inkscape:connector-curvature="0"
       sodipodi:nodetypes="cccczccccccccc" />
    <path
       style="fill:#000000;fill-opacity:1;stroke:none;stroke-width:0.264583px;stroke-linecap:butt;stroke-linejoin:miter;stroke-opacity:1"
       d="m -30.830532,-20.26225 0.73722,-4.33884 h 3.61187 l 0.69029,4.16369 z"
       id="path3908"
       inkscape:connector-curvature="0"
       sodipodi:nodetypes="ccccc" />
    <path
       inkscape:connector-curvature="0"
       style="fill:#ffffff;fill-opacity:1;fill-rule:evenodd;stroke:none;stroke-width:0.503719px;stroke-linecap:butt;stroke-linejoin:miter;stroke-opacity:1"
       d="m -8.2794523,-21.23585 c 2.08307,2.86122 -0.0449,10.67274 -3.7484897,15.0605596 0.51,0.81897 0.83963,2.20971 0.83963,2.20971 4.0162897,-4.28335 6.1069897,-11.5898196 4.9861197,-17.5223996 z"
       id="path3916"
       sodipodi:nodetypes="ccccc" />
    <path
       style="fill:#000000;fill-opacity:1;stroke:none;stroke-width:0.264583px;stroke-linecap:butt;stroke-linejoin:miter;stroke-opacity:1"
       d="m -30.120192,-14.16539 v 10.0793996 l 1.32131,1.32132 -6.35573,0.53489 4.7625,2.00249002 2.84352,3.45286998 1.43156,-7.25239 v -2.14009 l -1.27226,-4.9764196 v -2.95191 z"
       id="path3935"
       inkscape:connector-curvature="0"
       sodipodi:nodetypes="ccccccccccc" />
  </g>
</svg>
