<?xml version="1.0" encoding="UTF-8" standalone="no"?>
<!-- Created with Inkscape (http://www.inkscape.org/) -->

<svg
   width="100"
   height="100"
   viewBox="0 0 26.458333 26.458334"
   version="1.1"
   id="svg1664"
   inkscape:version="1.1 (c68e22c387, 2021-05-23)"
   sodipodi:docname="blade.svg"
   xmlns:inkscape="http://www.inkscape.org/namespaces/inkscape"
   xmlns:sodipodi="http://sodipodi.sourceforge.net/DTD/sodipodi-0.dtd"
   xmlns="http://www.w3.org/2000/svg"
   xmlns:svg="http://www.w3.org/2000/svg">
  <sodipodi:namedview
     id="namedview1666"
     pagecolor="#ffffff"
     bordercolor="#666666"
     borderopacity="1.0"
     inkscape:pageshadow="2"
     inkscape:pageopacity="0.0"
     inkscape:pagecheckerboard="0"
     inkscape:document-units="mm"
     showgrid="false"
     units="px"
     inkscape:zoom="0.74118967"
     inkscape:cx="-138.29119"
     inkscape:cy="-42.499243"
     inkscape:window-width="1920"
     inkscape:window-height="1017"
     inkscape:window-x="-8"
     inkscape:window-y="-8"
     inkscape:window-maximized="1"
     inkscape:current-layer="layer1" />
  <defs
     id="defs1661" />
  <g
     inkscape:label="Layer 1"
     inkscape:groupmode="layer"
     id="layer1">
    <g
       id="g2630"
       transform="matrix(2.3141089,0,0,2.3141089,-192.68078,761.36575)">
      <rect
         style="fill:#000000;fill-opacity:1;stroke:none;stroke-width:1.62685;stroke-linecap:round;stroke-linejoin:round;stroke-opacity:1;paint-order:stroke markers fill"
         id="rect2502-1-4"
         width="1.9696805"
         height="1.2620324"
         x="83.278839"
         y="-313.91977"
         rx="1.1890885"
         ry="1.2620324"
         transform="matrix(0.9981425,0.06092252,-0.01659483,0.9998623,0,0)" />
      <path
         style="fill:#000000;fill-opacity:1;stroke:none;stroke-width:0.741296px;stroke-linecap:butt;stroke-linejoin:miter;stroke-opacity:1"
         d="m 92.427696,-314.19812 c -0.0474,0.2526 -1.32363,0.51073 -2.62374,0.4483 -1.3001,-0.0625 -2.62517,-0.31361 -2.57266,-0.73382 0.0525,-0.42021 1.73483,-0.96788 2.62924,-0.87897 0.8944,0.0889 2.62427,0.86023 2.56716,1.16439 z"
         id="path2432-9"
         sodipodi:nodetypes="sszzs" />
      <path
         style="fill:#000000;fill-opacity:1;stroke:none;stroke-width:0.67088px;stroke-linecap:butt;stroke-linejoin:miter;stroke-opacity:1"
         d="m 88.908156,-313.86141 c 0.90057,-9.15106 0.29066,-18.34495 -3.39512,-28.54675 5.45807,5.86535 5.8194,15.38531 5.15639,28.58292 -0.0723,1.45164 -0.81958,6.8402 -0.81958,6.8402 l -1.23969,0.011 c 0,0 0.10246,-5.42396 0.298,-6.88742 z"
         id="path2434-2"
         sodipodi:nodetypes="cccccc" />
      <rect
         style="fill:#ffffff;fill-opacity:1;stroke:none;stroke-width:0.512128;stroke-linecap:round;stroke-linejoin:round;stroke-opacity:1;paint-order:stroke markers fill"
         id="rect2502"
         width="0.62005019"
         height="0.39728442"
         x="84.262589"
         y="-318.42184"
         rx="0.37432188"
         ry="0.39728442"
         transform="matrix(0.9981425,0.06092252,-0.01659483,0.9998623,0,0)" />
      <rect
         style="fill:#ffffff;fill-opacity:1;stroke:none;stroke-width:0.512128;stroke-linecap:round;stroke-linejoin:round;stroke-opacity:1;paint-order:stroke markers fill"
         id="rect2502-1"
         width="0.62005019"
         height="0.39728442"
         x="83.953651"
         y="-313.4874"
         rx="0.37432188"
         ry="0.39728442"
         transform="matrix(0.9981425,0.06092252,-0.01659483,0.9998623,0,0)" />
      <rect
         style="fill:#ffffff;fill-opacity:1;stroke:none;stroke-width:0.263336;stroke-linecap:round;stroke-linejoin:round;stroke-opacity:1;paint-order:stroke markers fill"
         id="rect2502-1-5"
         width="0.31883004"
         height="0.20428379"
         x="84.36245"
         y="-317.49139"
         rx="0.19247645"
         ry="0.20428379"
         transform="matrix(0.9981425,0.06092252,-0.01659483,0.9998623,0,0)" />
    </g>
    <g
       id="g3274"
       transform="matrix(2.118584,0,0,2.118584,47.121966,677.25013)">
      <path
         style="fill:#000000;fill-opacity:1;stroke:none;stroke-width:0.741296px;stroke-linecap:butt;stroke-linejoin:miter;stroke-opacity:1"
         d="m -34.792599,-303.72197 c -0.0474,0.25261 -1.32363,0.51074 -2.62374,0.4483 -1.3001,-0.0625 -2.62517,-0.31361 -2.57266,-0.73381 0.0525,-0.42022 1.73483,-0.96788 2.62924,-0.87897 0.8944,0.0889 2.62427,0.86022 2.56716,1.16438 z"
         id="path2432-3"
         sodipodi:nodetypes="sszzs" />
      <path
         style="fill:#000000;fill-opacity:1;stroke:none;stroke-width:0.67088px;stroke-linecap:butt;stroke-linejoin:miter;stroke-opacity:1"
         d="m -38.911759,-295.33663 c 0.41268,-0.45355 0.0509,-0.80919 0.0803,-1.28219 0.15036,-2.41388 0.35396,-5.73882 0.35396,-5.73882 0.90057,-9.15105 0.45602,-50.5934 -3.22976,-60.7952 5.45807,5.86535 5.76034,47.90543 5.09733,61.10304 0,0 -0.22126,3.28748 -0.4007,5.6547 -0.0352,0.46452 -0.47314,0.68398 -0.0988,1.25548 0,0 -0.1052,0.75757 -1.01348,0.64276 -0.78729,-0.0994 -0.78885,-0.83977 -0.78885,-0.83977 z"
         id="path2434-9"
         sodipodi:nodetypes="csscsscsc" />
      <path
         style="fill:#000000;fill-opacity:1;stroke:none;stroke-width:0.67088px;stroke-linecap:butt;stroke-linejoin:miter;stroke-opacity:1"
         d="m -38.732749,-303.6576 0.26956,1.39266 1.81946,0.30693 0.47172,-1.50498 z"
         id="path2436-1"
         sodipodi:nodetypes="ccccc" />
      <g
         transform="matrix(0.42443598,0,0,0.42443598,-115.01563,-360.50053)"
         id="g5047-7-0">
        <path
           inkscape:connector-curvature="0"
           id="path4826-0-6-7"
           d="m 184.45031,142.0121 -0.21904,0.29606 c -0.90754,1.02238 -2.11899,1.71749 -3.36226,2.37832 -0.31276,0.46051 -0.68284,0.21344 -1.0699,0.4525 l -0.14522,1.85508 c 0.5185,-0.65958 1.09549,-0.2979 1.61425,-0.57805 1.19625,-0.81305 1.70053,-2.18832 2.92748,-2.77859 l 0.1994,-0.29771 z"
           style="fill:#ffffff;fill-opacity:1;stroke:none;stroke-width:0.264583px;stroke-linecap:butt;stroke-linejoin:miter;stroke-opacity:1"
           sodipodi:nodetypes="ccccccccc" />
        <path
           sodipodi:nodetypes="ccccccc"
           inkscape:connector-curvature="0"
           id="path4828-2-6-3"
           d="m 184.47677,141.66511 c -1.10176,0.98933 -2.37487,1.20585 -3.33921,1.77775 -0.45043,-0.036 -0.8581,0.22419 -1.27635,0.34409 l 0.11121,-1.6696 c 0.36316,0.17867 0.7843,-0.20814 1.03384,-0.11338 1.03581,-0.73874 2.46248,-0.95107 3.56746,-1.75625 z"
           style="fill:#ffffff;fill-opacity:1;stroke:none;stroke-width:0.264583px;stroke-linecap:butt;stroke-linejoin:miter;stroke-opacity:1" />
        <path
           sodipodi:nodetypes="ccccccc"
           inkscape:connector-curvature="0"
           id="path4830-9-5-1"
           d="m 184.18485,146.23686 c -1.41497,1.19154 -2.24665,0.2173 -4.26091,1.65091 -0.53743,0.975 -0.88329,1.86652 -1.06184,2.84153 0.46114,1.52785 -0.93181,5.55939 -0.40581,6.62689 0.89492,-2.15229 1.19343,-6.58546 2.54447,-8.64017 1.01015,0.23458 2.03998,-0.82909 3.01077,-0.6336 z"
           style="fill:#ffffff;fill-opacity:1;stroke:none;stroke-width:0.264583px;stroke-linecap:butt;stroke-linejoin:miter;stroke-opacity:1" />
        <path
           sodipodi:nodetypes="ccccccccc"
           inkscape:connector-curvature="0"
           id="path4832-1-9-64"
           d="m 184.65605,139.35771 c -0.75487,0.23922 -1.26552,0.75318 -1.82078,1.21696 -0.63685,-0.16797 -1.55807,0.0627 -2.31105,-0.17951 -0.2081,-0.0254 -0.29902,-0.2265 -0.40656,-0.4027 l 0.10585,-1.74817 c 0.13084,0.11514 0.23411,0.27623 0.43822,0.26926 0.83057,0.0145 1.44157,0.31076 2.15532,0.29662 0.78532,-0.15188 1.21744,-0.7798 1.92107,-1.11306 z"
           style="fill:#ffffff;fill-opacity:1;stroke:none;stroke-width:0.264583px;stroke-linecap:butt;stroke-linejoin:miter;stroke-opacity:1" />
      </g>
    </g>
  </g>
</svg>
