<?xml version="1.0" encoding="UTF-8" standalone="no"?>
<!-- Created with Inkscape (http://www.inkscape.org/) -->

<svg
   width="205.96353"
   height="293.67816"
   viewBox="0 0 54.494517 77.702349"
   version="1.1"
   id="svg1664"
   inkscape:version="1.1 (c68e22c387, 2021-05-23)"
   sodipodi:docname="bow.svg"
   xmlns:inkscape="http://www.inkscape.org/namespaces/inkscape"
   xmlns:sodipodi="http://sodipodi.sourceforge.net/DTD/sodipodi-0.dtd"
   xmlns="http://www.w3.org/2000/svg"
   xmlns:svg="http://www.w3.org/2000/svg">
  <sodipodi:namedview
     id="namedview1666"
     pagecolor="#cccccc"
     bordercolor="#666666"
     borderopacity="1.0"
     inkscape:pageshadow="2"
     inkscape:pageopacity="0"
     inkscape:pagecheckerboard="true"
     inkscape:document-units="mm"
     showgrid="false"
     units="px"
     inkscape:zoom="0.37059484"
     inkscape:cx="-532.92701"
     inkscape:cy="-201.02816"
     inkscape:window-width="1920"
     inkscape:window-height="1017"
     inkscape:window-x="1912"
     inkscape:window-y="-8"
     inkscape:window-maximized="1"
     inkscape:current-layer="layer1"
     fit-margin-top="0"
     fit-margin-left="0"
     fit-margin-right="0"
     fit-margin-bottom="0" />
  <defs
     id="defs1661" />
  <g
     inkscape:label="Layer 1"
     inkscape:groupmode="layer"
     id="layer1"
     transform="translate(35.814569,25.28627)">
    <path
       style="fill:#000000;fill-opacity:1;fill-rule:evenodd;stroke:none;stroke-width:0.35371px;stroke-linecap:butt;stroke-linejoin:miter;stroke-opacity:1"
       d="m -30.673291,-25.286037 c -0.47946,-0.0308 -5.15666,3.003703 -5.14124,5.249053 0.0159,2.31786 4.87734,4.2523 4.87734,4.2523 12.20309,4.88579 11.37212,21.2006502 11.63025,25.4861902 h -1.49428 v 3.8625098 3.86251 h 1.49428 c -0.25813,4.28555 0.57284,20.60076 -11.63025,25.48656 0,0 -4.86143,1.93408 -4.87734,4.25194 -0.0154,2.24535 4.66178,5.28124 5.14124,5.24905 v 0.002 c 0.0156,-10e-4 0.0265,-10e-4 0.0331,-0.0145 -0.46859,-0.76566 -1.44592,-2.72663 -1.6179,-3.57977 -0.35555,-1.76431 -0.51656,-3.58237 0.72953,-4.17838 10.59042,-5.06583 15.54625,-12.6674 16.71278,-21.97421 -1.35587,-0.89878 -3.06111,-1.71938 -3.06111,-3.93502 v -2.71083 l -0.34472,-0.19879 v -2.26056 -2.2602 l 0.34472,-0.19914 V 8.3938462 c 0,-2.21564 1.70524,-3.03624 3.06111,-3.93502 -1.16653,-9.30681 -6.12236,-16.9083802 -16.71278,-21.9742102 -1.24609,-0.59601 -1.08508,-2.41407 -0.72953,-4.17838 0.17198,-0.85279 1.14931,-2.814113 1.61794,-3.579893 -0.006,-0.007 -0.0177,-0.0113 -0.0331,-0.0124 z m 12.01576,36.840983 v 2.00907 2.00908 l -1.11018,-0.64128 v -1.3678 -1.36779 z"
       id="path5897"
       inkscape:connector-curvature="0" />
    <path
       style="fill:none;fill-rule:evenodd;stroke:#000000;stroke-width:1.20317;stroke-linecap:butt;stroke-linejoin:miter;stroke-miterlimit:4;stroke-dasharray:none;stroke-opacity:1"
       d="m -29.848441,-15.791054 v 58.7158"
       id="path5922"
       inkscape:connector-curvature="0" />
    <path
       id="path5897-1"
       style="fill:#000000;fill-opacity:1;fill-rule:evenodd;stroke:none;stroke-width:0.353711px;stroke-linecap:butt;stroke-linejoin:miter;stroke-opacity:1"
       d="m 2.1350839,-24.227671 c -0.479459,-0.0308 -6.215041,1.945093 -6.199621,4.190442 0.0159,2.317861 4.87722302,4.252455 4.87722302,4.252455 C 10.016196,-12.099925 11.804414,-0.33136377 12.23886,6.2919242 l 1.100193,3.175 h 5.29e-4 v 8.1974268 l -1.100709,3.173968 c -0.434692,6.62342 -2.223661,18.390155 -11.42617408,22.07461 0,0 -4.86131402,1.934078 -4.87722302,4.251934 -0.0154,2.24536 5.720162,4.223146 6.199621,4.190973 v 0.0026 c 0.01561,0 0.02647,7.9e-5 0.03307,-0.01455 C 0.18342192,49.76173 -2.4097251,46.056797 0.22151592,44.644054 10.811938,39.578236 14.709327,31.447299 15.875859,22.140501 c -0.120917,-0.08012 2.92536,-3.338433 2.800345,-3.41839 L 15.082612,18.008979 V 9.1211492 l 3.590478,-0.712602 c 0.126111,-0.08065 -2.919196,-3.339624 -2.797244,-3.420481 -1.166532,-9.306904 -5.063921,-17.4377082 -15.65434308,-22.5035292 -3.23348602,-2.916319 0.97823098,-5.275577 1.94665098,-6.699851 -0.006,-0.007 -0.01767,-0.0113 -0.03307,-0.01241 z"
       sodipodi:nodetypes="cscccccccscccccccccccccc" />
    <path
       style="fill:none;fill-rule:evenodd;stroke:#000000;stroke-width:1.20317;stroke-linecap:butt;stroke-linejoin:miter;stroke-miterlimit:4;stroke-dasharray:none;stroke-opacity:1"
       d="m 1.9015609,-15.791064 v 58.7158"
       id="path5922-4"
       inkscape:connector-curvature="0" />
  </g>
</svg>
