<?xml version="1.0" encoding="UTF-8" standalone="no"?>
<!-- Created with Inkscape (http://www.inkscape.org/) -->

<svg
   width="249.39336"
   height="347.77737"
   viewBox="0 0 65.985325 92.016099"
   version="1.1"
   id="svg1664"
   inkscape:version="1.1 (c68e22c387, 2021-05-23)"
   sodipodi:docname="greatshield.svg"
   xmlns:inkscape="http://www.inkscape.org/namespaces/inkscape"
   xmlns:sodipodi="http://sodipodi.sourceforge.net/DTD/sodipodi-0.dtd"
   xmlns="http://www.w3.org/2000/svg"
   xmlns:svg="http://www.w3.org/2000/svg">
  <sodipodi:namedview
     id="namedview1666"
     pagecolor="#e5e5e5"
     bordercolor="#666666"
     borderopacity="1.0"
     inkscape:pageshadow="2"
     inkscape:pageopacity="0"
     inkscape:pagecheckerboard="true"
     inkscape:document-units="mm"
     showgrid="false"
     units="px"
     inkscape:zoom="0.74118967"
     inkscape:cx="-269.16187"
     inkscape:cy="-22.261508"
     inkscape:window-width="1920"
     inkscape:window-height="1017"
     inkscape:window-x="1912"
     inkscape:window-y="-8"
     inkscape:window-maximized="1"
     inkscape:current-layer="layer1"
     fit-margin-top="0"
     fit-margin-left="0"
     fit-margin-right="0"
     fit-margin-bottom="0" />
  <defs
     id="defs1661" />
  <g
     inkscape:label="Layer 1"
     inkscape:groupmode="layer"
     id="layer1"
     transform="translate(18.356845,29.944346)">
    <path
       id="path1276"
       style="fill:#000000;fill-opacity:1;stroke:none;stroke-width:0.264583px;stroke-linecap:butt;stroke-linejoin:miter;stroke-opacity:1"
       d="m 14.636077,-29.944346 c -10.6568401,10.868956 -21.3138301,13.815851 -31.97067,14.664738 -5.66507,42.005707 13.2158899,63.518808 31.97067,77.351357 18.75475,-13.832549 37.6352,-35.345647 31.97013,-77.351357 -10.65683,-0.848889 -21.31332,-3.795779 -31.97013,-14.664738 z" />
    <path
       id="path1276-1"
       style="fill:#474747;fill-opacity:1;stroke:none;stroke-width:0.120425px;stroke-linecap:butt;stroke-linejoin:miter;stroke-opacity:1"
       d="M 14.47305,-6.5390527 C 9.622602,-1.5920346 4.7724721,-0.25089609 -0.07800178,0.13547491 -2.6564722,19.254404 5.9367975,29.04622 14.47305,35.34211 23.009302,29.04622 31.6031,19.254404 29.02463,0.13547491 24.174156,-0.25089879 19.323523,-1.5920373 14.47305,-6.5390527 Z" />
    <path
       id="path1276-1-8"
       style="fill:none;fill-opacity:1;stroke:#ffffff;stroke-width:1.25;stroke-linecap:butt;stroke-linejoin:miter;stroke-miterlimit:4;stroke-dasharray:none;stroke-opacity:1"
       d="M 14.47305,-25.195797 C 4.8399144,-15.370887 -4.7933266,-12.177932 -14.426488,-11.41059 -20.898593,26.767978 1.6773498,51.359964 14.47305,57.003843 27.268749,51.359964 49.844692,26.767983 43.372587,-11.41059 33.739452,-12.177932 24.106185,-15.370884 14.47305,-25.195797 Z"
       sodipodi:nodetypes="ccccc" />
    <path
       id="path1276-1-8-3"
       style="fill:none;fill-opacity:1;stroke:#808080;stroke-width:0.750001;stroke-linecap:butt;stroke-linejoin:miter;stroke-miterlimit:4;stroke-dasharray:none;stroke-opacity:1"
       d="M 14.47305,-21.288541 C 5.7471177,-12.3889 -2.9787612,-9.5084127 -11.704666,-8.8133337 -17.567277,25.769755 2.8823946,48.045713 14.47305,53.158072 26.063704,48.045713 46.513376,25.769752 40.650792,-8.8133337 31.92486,-9.5084097 23.198981,-12.388895 14.47305,-21.288541 Z" />
    <circle
       style="fill:#ffffff;fill-opacity:1;stroke:none;stroke-width:0.750001;stroke-miterlimit:4;stroke-dasharray:none;stroke-opacity:1"
       id="path1323-8-0-5"
       cx="14.635821"
       cy="-17.420792"
       r="0.86357057" />
    <circle
       style="fill:#ffffff;fill-opacity:1;stroke:none;stroke-width:0.750001;stroke-miterlimit:4;stroke-dasharray:none;stroke-opacity:1"
       id="path1323"
       cx="22.286577"
       cy="43.642838"
       r="0.86357057" />
    <circle
       style="fill:#ffffff;fill-opacity:1;stroke:none;stroke-width:0.750001;stroke-miterlimit:4;stroke-dasharray:none;stroke-opacity:1"
       id="path1323-8"
       cx="36.324207"
       cy="22.531294"
       r="0.86357057" />
    <circle
       style="fill:#ffffff;fill-opacity:1;stroke:none;stroke-width:0.750001;stroke-miterlimit:4;stroke-dasharray:none;stroke-opacity:1"
       id="path1323-8-0"
       cx="38.268696"
       cy="-6.3223791"
       r="0.86357057" />
    <circle
       style="fill:#ffffff;fill-opacity:1;stroke:none;stroke-width:0.750001;stroke-miterlimit:4;stroke-dasharray:none;stroke-opacity:1"
       id="path1323-4"
       cx="-6.6600523"
       cy="43.642838"
       r="0.86357057"
       transform="scale(-1,1)" />
    <circle
       style="fill:#ffffff;fill-opacity:1;stroke:none;stroke-width:0.750001;stroke-miterlimit:4;stroke-dasharray:none;stroke-opacity:1"
       id="path1323-8-8"
       cx="7.3775754"
       cy="22.531294"
       r="0.86357057"
       transform="scale(-1,1)" />
    <circle
       style="fill:#ffffff;fill-opacity:1;stroke:none;stroke-width:0.750001;stroke-miterlimit:4;stroke-dasharray:none;stroke-opacity:1"
       id="path1323-8-0-1"
       cx="9.3220644"
       cy="-6.3223791"
       r="0.86357057"
       transform="scale(-1,1)" />
  </g>
</svg>
