<?xml version="1.0" encoding="UTF-8" standalone="no"?>
<!-- Created with Inkscape (http://www.inkscape.org/) -->

<svg
   width="190.07581"
   height="76.520691"
   viewBox="0 0 50.29089 20.2461"
   version="1.1"
   id="svg1664"
   inkscape:version="1.1 (c68e22c387, 2021-05-23)"
   sodipodi:docname="helm.svg"
   xmlns:inkscape="http://www.inkscape.org/namespaces/inkscape"
   xmlns:sodipodi="http://sodipodi.sourceforge.net/DTD/sodipodi-0.dtd"
   xmlns="http://www.w3.org/2000/svg"
   xmlns:svg="http://www.w3.org/2000/svg">
  <sodipodi:namedview
     id="namedview1666"
     pagecolor="#cccccc"
     bordercolor="#666666"
     borderopacity="1.0"
     inkscape:pageshadow="2"
     inkscape:pageopacity="0"
     inkscape:pagecheckerboard="true"
     inkscape:document-units="mm"
     showgrid="false"
     units="px"
     inkscape:zoom="0.26205011"
     inkscape:cx="-684.98348"
     inkscape:cy="-471.2839"
     inkscape:window-width="1920"
     inkscape:window-height="1017"
     inkscape:window-x="1912"
     inkscape:window-y="-8"
     inkscape:window-maximized="1"
     inkscape:current-layer="layer1"
     fit-margin-top="0"
     fit-margin-left="0"
     fit-margin-right="0"
     fit-margin-bottom="0" />
  <defs
     id="defs1661" />
  <g
     inkscape:label="Layer 1"
     inkscape:groupmode="layer"
     id="layer1"
     transform="translate(27.822728,-3.4418513)">
    <path
       style="fill:#000000;fill-opacity:1;fill-rule:evenodd;stroke:none;stroke-width:0.264583px;stroke-linecap:butt;stroke-linejoin:miter;stroke-opacity:1"
       d="m -14.592778,6.5160513 c 0,0 -0.78232,0.6111 -0.9524,1.0525 -0.18678,0.485 -0.22833,1.1959 -0.21032,1.8878 -0.35822,0.7690997 -0.76417,1.5199997 -1.17616,2.0044997 -0.9458,1.1128 -2.35685,2.0706 -3.89743,3.0067 -0.37833,-0.079 -3.715845,-0.5821 -4.816763,-2.489 -1.166908,-2.0210997 -0.562239,-8.5366997 -0.562239,-8.5366997 0,0 -2.394805,7.1830997 -1.351339,9.4344997 1.043467,2.2513 2.860559,1.8462 3.758425,3.3202 0.557707,0.9158 0.964441,2.06019 0.832508,3.1068 -0.131933,1.04661 -1.914096,3.316 -1.914096,3.316 -1.695653,0.10044 -2.13837,1.0686 -2.13837,1.0686 h 12.428184 12.4281697 c 0,0 -0.8569322,-1.0686 -2.13836,-1.0686 0,0 -1.7821824,-2.269389 -1.9141,-3.316 -0.1319176,-1.046611 0.2748,-2.191 0.83251,-3.1068 0.89786,-1.474 2.71497,-1.0689 3.75843,-3.3202 1.04347003,-2.2514 -1.35133,-9.4344997 -1.35133,-9.4344997 0,0 0.60465,6.5156 -0.56224,8.5366997 -1.10093,1.9069 -4.43844,2.4099 -4.81677,2.489 -1.54058,-0.9361 -2.9516397,-1.8939 -3.8974397,-3.0067 -0.41199,-0.4845 -0.81793,-1.2354 -1.17615,-2.0044997 0.018,-0.6919 -0.0236,-1.4028 -0.21032,-1.8878 -0.17008,-0.4414 -0.9524,-1.0525 -0.9524,-1.0525 z"
       id="path4606"
       inkscape:connector-curvature="0"
       sodipodi:nodetypes="ccccccccczccccczccccccccc" />
    <g
       id="g4718"
       transform="translate(-31.764828,-268.76805)">
      <rect
         y="287.41699"
         x="16.28269"
         height="1.778723"
         width="1.778723"
         id="rect4540-0-4"
         style="opacity:1;vector-effect:none;fill:#ffffff;fill-opacity:1;fill-rule:evenodd;stroke:none;stroke-width:8.40653;stroke-linecap:round;stroke-linejoin:miter;stroke-miterlimit:4;stroke-dasharray:none;stroke-dashoffset:0;stroke-opacity:1" />
      <rect
         y="283.64929"
         x="16.549959"
         height="1.244184"
         width="1.244184"
         id="rect4540-0-4-5"
         style="opacity:1;vector-effect:none;fill:#ffffff;fill-opacity:1;fill-rule:evenodd;stroke:none;stroke-width:5.88021;stroke-linecap:round;stroke-linejoin:miter;stroke-miterlimit:4;stroke-dasharray:none;stroke-dashoffset:0;stroke-opacity:1" />
    </g>
    <path
       style="vector-effect:none;fill:#000000;fill-opacity:1;fill-rule:evenodd;stroke:none;stroke-width:1.41668;stroke-linecap:round;stroke-linejoin:miter;stroke-miterlimit:4;stroke-dasharray:none;stroke-dashoffset:0;stroke-opacity:1"
       d="m 5.8336017,11.974551 c -1.7010096,0 -1.69478,1.7355 -1.69478,1.7355 v 4.204 h -1.67054 v 5.6393 H 22.468162 v -5.6393 h -1.67054 v -4.204 c 0,0 -0.08301,-1.7355 -1.69478,-1.7355 -1.611767,0 -1.69478,1.7355 -1.69478,1.7355 v 4.204 h -3.24409 v -4.204 c 0,0 -0.08301,-1.7355 -1.69478,-1.7355 -1.611767,0 -1.69478,1.7355 -1.69478,1.7355 v 4.204 H 7.5283817 v -4.204 c 0,0 0.00623,-1.7355 -1.69478,-1.7355 z"
       id="rect4951-29"
       inkscape:connector-curvature="0"
       sodipodi:nodetypes="zcccccccczcccczccccz" />
  </g>
</svg>
