<?xml version="1.0" encoding="UTF-8" standalone="no"?>
<!-- Created with Inkscape (http://www.inkscape.org/) -->

<svg
   width="100"
   height="100"
   viewBox="0 0 26.458333 26.458334"
   version="1.1"
   id="svg1664"
   inkscape:version="1.1 (c68e22c387, 2021-05-23)"
   sodipodi:docname="shuriken.svg"
   xmlns:inkscape="http://www.inkscape.org/namespaces/inkscape"
   xmlns:sodipodi="http://sodipodi.sourceforge.net/DTD/sodipodi-0.dtd"
   xmlns="http://www.w3.org/2000/svg"
   xmlns:svg="http://www.w3.org/2000/svg">
  <sodipodi:namedview
     id="namedview1666"
     pagecolor="#cccccc"
     bordercolor="#666666"
     borderopacity="1.0"
     inkscape:pageshadow="2"
     inkscape:pageopacity="0"
     inkscape:pagecheckerboard="true"
     inkscape:document-units="mm"
     showgrid="false"
     units="px"
     inkscape:zoom="0.74118967"
     inkscape:cx="-138.29119"
     inkscape:cy="-42.499243"
     inkscape:window-width="1920"
     inkscape:window-height="1017"
     inkscape:window-x="-8"
     inkscape:window-y="-8"
     inkscape:window-maximized="1"
     inkscape:current-layer="layer1" />
  <defs
     id="defs1661" />
  <g
     inkscape:label="Layer 1"
     inkscape:groupmode="layer"
     id="layer1">
    <path
       style="fill:#ffffff;fill-opacity:1;fill-rule:evenodd;stroke:none;stroke-width:0.162254px;stroke-linecap:butt;stroke-linejoin:miter;stroke-opacity:1"
       d="m -32.830368,35.260391 c 0,0 4.44474,-10.87185 -0.94404,-16.26063 h 9.44184 z"
       id="path7044-9-1-7"
       inkscape:connector-curvature="0"
       sodipodi:nodetypes="cccc" />
    <path
       style="fill:#ffffff;fill-opacity:1;fill-rule:evenodd;stroke:none;stroke-width:0.162254px;stroke-linecap:butt;stroke-linejoin:miter;stroke-opacity:1"
       d="m -8.071938,18.055751 c 0,0 -10.87186,-4.44476 -16.26063,0.94402 V 9.5579309 Z"
       id="path7044-9-1"
       inkscape:connector-curvature="0"
       sodipodi:nodetypes="cccc" />
    <path
       style="fill:#ffffff;fill-opacity:1;fill-rule:evenodd;stroke:none;stroke-width:0.162254px;stroke-linecap:butt;stroke-linejoin:miter;stroke-opacity:1"
       d="m -25.276588,-6.7026991 c 0,0 -4.44474,10.87184 0.94403,16.26063 h -9.44183 z"
       id="path7044-9"
       inkscape:connector-curvature="0"
       sodipodi:nodetypes="cccc" />
    <path
       style="fill:#ffffff;fill-opacity:1;fill-rule:evenodd;stroke:none;stroke-width:0.162254px;stroke-linecap:butt;stroke-linejoin:miter;stroke-opacity:1"
       d="m -50.035013,10.501961 c 0,0 10.871835,4.44475 16.260625,-0.9440301 v 9.4418201 z"
       id="path7044"
       inkscape:connector-curvature="0"
       sodipodi:nodetypes="cccc" />
    <path
       style="fill:#000000;fill-opacity:1;fill-rule:evenodd;stroke:none;stroke-width:0.0935192px;stroke-linecap:butt;stroke-linejoin:miter;stroke-opacity:1"
       d="m -25.276618,-6.7026891 c 0,0 -6.18167,2.80913 -8.49777,16.26063 -6.07168,6.5233301 -16.260625,0.9440401 -16.260625,0.9440401 0,0 2.809111,6.18169 16.260625,8.49778 6.52331,6.07169 0.94406,16.26063 0.94406,16.26063 0,0 6.18167,-2.80913 8.49776,-16.26063 6.07168,-6.52332 16.26062,-0.94437 16.26062,-0.94437 0,0 -2.80909,-6.18134 -16.26062,-8.4974501 -6.52334,-6.07165 -0.94405,-16.26063 -0.94405,-16.26063 z m -3.77686,18.6288401 a 2.352691,2.352691 0 0 1 2.35269,2.35269 2.352691,2.352691 0 0 1 -2.35269,2.3527 2.352691,2.352691 0 0 1 -2.35269,-2.3527 2.352691,2.352691 0 0 1 2.35269,-2.35269 z"
       id="path6897"
       inkscape:connector-curvature="0" />
    <path
       style="fill:#ffffff;fill-opacity:1;fill-rule:evenodd;stroke:none;stroke-width:0.150791px;stroke-linecap:butt;stroke-linejoin:miter;stroke-opacity:1"
       d="m 10.509942,29.863451 c 0,0 4.13077,-6.61591 -0.87729,-11.62396 h 8.77473 z"
       id="path7044-9-1-7-5"
       inkscape:connector-curvature="0"
       sodipodi:nodetypes="cccc" />
    <path
       style="fill:#ffffff;fill-opacity:1;fill-rule:evenodd;stroke:none;stroke-width:0.150791px;stroke-linecap:butt;stroke-linejoin:miter;stroke-opacity:1"
       d="m 30.031342,17.362131 c 0,0 -6.61591,-4.13075 -11.62396,0.87736 V 9.4646709 Z"
       id="path7044-9-1-60"
       inkscape:connector-curvature="0"
       sodipodi:nodetypes="cccc" />
    <path
       style="fill:#ffffff;fill-opacity:1;fill-rule:evenodd;stroke:none;stroke-width:0.150791px;stroke-linecap:butt;stroke-linejoin:miter;stroke-opacity:1"
       d="m 17.530092,-2.1592991 c 0,0 -4.13077,6.61591 0.87729,11.62397 h -8.77473 z"
       id="path7044-9-9"
       inkscape:connector-curvature="0"
       sodipodi:nodetypes="cccc" />
    <path
       style="fill:#ffffff;fill-opacity:1;fill-rule:evenodd;stroke:none;stroke-width:0.150791px;stroke-linecap:butt;stroke-linejoin:miter;stroke-opacity:1"
       d="m -1.991368,10.342021 c 0,0 6.6159,4.13075 11.62402,-0.8773501 v 8.7747601 z"
       id="path7044-5"
       inkscape:connector-curvature="0"
       sodipodi:nodetypes="cccc" />
    <path
       style="fill:#000000;fill-opacity:1;fill-rule:evenodd;stroke:none;stroke-width:0.0869121px;stroke-linecap:butt;stroke-linejoin:miter;stroke-opacity:1"
       d="m 17.530022,-2.1592991 c 0,0 -5.74495,-0.87714 -7.89737,11.62403 -5.64272,6.0624401 -11.62402,0.8772901 -11.62402,0.8772901 0,0 -0.87719,5.74496 11.62402,7.89747 6.06238,5.64272 0.87735,11.62396 0.87735,11.62396 0,0 5.74496,0.87714 7.89738,-11.62396 5.64272,-6.0625 11.62396,-0.87767 11.62396,-0.87767 0,0 0.87723,-5.74465 -11.62396,-7.8970901 -6.06252,-5.64272 -0.87736,-11.62403 -0.87736,-11.62403 z m -3.51007,13.8248701 c 1.20757,-5e-5 2.18656,0.9789 2.18656,2.18651 0,1.20757 -0.97899,2.18649 -2.18656,2.18645 -1.20754,-3e-5 -2.18642,-0.97892 -2.18643,-2.18645 -2e-5,-1.20756 0.97887,-2.18649 2.18643,-2.18651 z"
       id="path6897-4"
       inkscape:connector-curvature="0"
       sodipodi:nodetypes="cccccccccccccc" />
  </g>
</svg>
