<?xml version="1.0" encoding="UTF-8" standalone="no"?>
<!-- Created with Inkscape (http://www.inkscape.org/) -->

<svg
   width="100"
   height="100"
   viewBox="0 0 26.458333 26.458334"
   version="1.1"
   id="svg1664"
   inkscape:version="1.1 (c68e22c387, 2021-05-23)"
   sodipodi:docname="sword.svg"
   xmlns:inkscape="http://www.inkscape.org/namespaces/inkscape"
   xmlns:sodipodi="http://sodipodi.sourceforge.net/DTD/sodipodi-0.dtd"
   xmlns:xlink="http://www.w3.org/1999/xlink"
   xmlns="http://www.w3.org/2000/svg"
   xmlns:svg="http://www.w3.org/2000/svg">
  <sodipodi:namedview
     id="namedview1666"
     pagecolor="#e5e5e5"
     bordercolor="#666666"
     borderopacity="1.0"
     inkscape:pageshadow="2"
     inkscape:pageopacity="0"
     inkscape:pagecheckerboard="true"
     inkscape:document-units="mm"
     showgrid="false"
     units="px"
     inkscape:zoom="0.74118967"
     inkscape:cx="-232.73395"
     inkscape:cy="-101.86327"
     inkscape:window-width="1920"
     inkscape:window-height="1017"
     inkscape:window-x="1912"
     inkscape:window-y="-8"
     inkscape:window-maximized="1"
     inkscape:current-layer="layer1" />
  <defs
     id="defs1661">
    <linearGradient
       inkscape:collect="always"
       xlink:href="#linearGradient4787"
       id="linearGradient4792"
       gradientUnits="userSpaceOnUse"
       gradientTransform="matrix(0.9101413,0,0,1.158242,-34.237493,234.66202)"
       x1="51.695518"
       y1="-207.7267"
       x2="51.695518"
       y2="-200.459" />
    <linearGradient
       inkscape:collect="always"
       id="linearGradient4787">
      <stop
         style="stop-color:#ffffff;stop-opacity:1;"
         offset="0"
         id="stop4783" />
      <stop
         style="stop-color:#ffffff;stop-opacity:0;"
         offset="1"
         id="stop4785" />
    </linearGradient>
  </defs>
  <g
     inkscape:label="Layer 1"
     inkscape:groupmode="layer"
     id="layer1">
    <g
       id="g1030"
       transform="rotate(180,1.3163822,8.824753)">
      <path
         id="path973"
         style="fill:#000000;fill-opacity:1;stroke:none;stroke-width:0.999999px;stroke-linecap:butt;stroke-linejoin:miter;stroke-opacity:1"
         d="m 60.820312,-65.681641 c -4.159254,0 -6.070312,2.080566 -6.070312,6.429688 0,4.349122 3.214844,6.427734 3.214844,6.427734 0,2.403474 -0.823366,3.929688 -3.714844,3.929688 2.856648,14.45797 2.478762,26.017404 -1.744383,39.2387679 -0.269642,0.8400122 3.155731,4.4692626 3.155731,4.4692626 0,0 -4.596987,1.5935902 -4.911348,2.3622817 -7.828452,10.7326261 -9.156247,-13.4215982 -23.142578,-7.3574222 8.00242,1.4990707 -0.0749,31.167552 15.357422,24.5 L 60.820312,27.533203 78.677734,14.318359 c 15.432322,6.667552 7.355006,-23.0009293 15.357426,-24.5 -13.98633,-6.064176 -18.114115,19.6532934 -23.142582,7.3574222 -0.314361,-0.7686915 -4.911348,-2.3622815 -4.911348,-2.3622815 0,0 3.425373,-3.6292503 3.155731,-4.4692624 -4.207126,-13.2330983 -4.612008,-26.7633683 -1.744383,-39.2387683 -2.891478,0 -3.714844,-1.526214 -3.714844,-3.929688 0,0 3.214844,-2.0168 3.214844,-6.427734 0,-4.410934 -1.913012,-6.429688 -6.072266,-6.429688 z"
         transform="scale(0.26458333)"
         sodipodi:nodetypes="zzccccccccccsccczsz" />
      <path
         id="path975"
         style="fill:#000000;fill-opacity:1;stroke:none;stroke-width:0.999999px;stroke-linecap:butt;stroke-linejoin:miter;stroke-opacity:1"
         d="m 49.730469,12.626953 c 7e-6,45.931725 0.06981,105.845747 -4,160.294927 5.837745,7.44586 11.872744,27.92767 15.089843,36.96679 3.2171,-9.03912 9.254052,-29.52094 15.091797,-36.96679 -4.069814,-54.44919 -4.000007,-114.3632 -4,-160.294927 l -11.091797,5.050781 z"
         transform="scale(0.26458333)"
         sodipodi:nodetypes="ccccccc" />
      <path
         id="path995"
         style="fill:#ffffff;fill-opacity:1;stroke:none;stroke-width:0.264583px;stroke-linecap:butt;stroke-linejoin:miter;stroke-opacity:1"
         d="m 16.092041,45.391027 -1.123962,-1.039213 c 0,0 1.123962,-19.823945 1.123962,-41.7530063 0,21.9290603 1.124479,41.7530063 1.124479,41.7530063 z"
         sodipodi:nodetypes="ccccc" />
      <circle
         style="fill:#ffffff;fill-opacity:1;stroke:none;stroke-width:0.194528"
         id="path1024"
         cx="16.0923"
         cy="-15.585155"
         r="0.57722789" />
    </g>
    <path
       style="vector-effect:none;fill:#000000;fill-opacity:1;fill-rule:evenodd;stroke:none;stroke-width:0.825195;stroke-linecap:round;stroke-linejoin:miter;stroke-miterlimit:4;stroke-dasharray:none;stroke-dashoffset:0;stroke-opacity:1"
       d="m 11.501625,19.387114 c 0,0 1.2613,6.1811 0,8.8467 -0.372489,0.7872 -2.0202297,1.6567 -2.0202297,1.6567 0,0 -0.92601,-0.139 -0.92601,0.3738 v 0.5549 c 0,0.5128 0.41316,0.926 0.92601,0.926 h 6.9500007 c 0.51282,0 0.92599,-0.4132 0.92599,-0.926 v -0.5549 c 0,-0.5128 -0.92599,-0.3738 -0.92599,-0.3738 0,0 -1.647741,-0.8695 -2.020231,-1.6567 -1.2613,-2.6656 0,-8.8467 0,-8.8467 z"
       id="rect4720"
       inkscape:connector-curvature="0"
       sodipodi:nodetypes="cscsssssscscc" />
    <path
       style="vector-effect:none;fill:#000000;fill-opacity:1;fill-rule:evenodd;stroke:none;stroke-width:0.821747;stroke-linecap:round;stroke-linejoin:miter;stroke-miterlimit:4;stroke-dasharray:none;stroke-dashoffset:0;stroke-opacity:1"
       d="m 11.463165,12.740714 c 0,0 -1.4811697,4.6993 -3.4689797,6.3038 0,0 -0.832,0.864 -0.64925,1.3186 0.33672,0.8377 1.14977,0.05 1.99289,0.3732 0.9221407,0.3529 2.7483997,1.1046 2.7483997,1.1046 h 1.73972 c 0,0 1.826221,-0.7517 2.748371,-1.1046 0.84328,-0.3225 1.65675,0.4647 1.99343,-0.3732 0.18273,-0.4547 -0.6498,-1.3186 -0.6498,-1.3186 -1.98781,-1.6045 -3.468951,-6.3038 -3.468951,-6.3038 l -0.44584,6.1416 h -0.72946 -0.63522 -0.72949 z"
       id="rect4720-3"
       inkscape:connector-curvature="0"
       sodipodi:nodetypes="ccssccssccccccc" />
    <path
       style="fill:#000000;fill-opacity:1;fill-rule:evenodd;stroke:none;stroke-width:0.276124px;stroke-linecap:butt;stroke-linejoin:miter;stroke-opacity:1"
       d="m 12.982535,-26.033686 c 0,0 -4.5657397,7.3562 -4.5657397,13.4357 0,6.0795002 2.3365307,16.0607002 2.8059997,21.4217002 0.14659,1.6739998 0,10.5633998 0,10.5633998 h 1.75974 1.76028 c 0,0 -0.14659,-8.8894 0,-10.5633998 0.46947,-5.361 2.806031,-15.3422 2.806031,-21.4217002 0,-6.0795 -4.566311,-13.4357 -4.566311,-13.4357 z"
       id="path4741"
       inkscape:connector-curvature="0"
       sodipodi:nodetypes="cscccccsc" />
    <path
       style="vector-effect:none;fill:url(#linearGradient4792);fill-opacity:1;fill-rule:evenodd;stroke:none;stroke-width:1.12948;stroke-linecap:round;stroke-linejoin:miter;stroke-miterlimit:4;stroke-dasharray:none;stroke-dashoffset:0;stroke-opacity:1"
       d="m 12.955685,-20.736986 h 0.0543 c 0.27915,0 0.50388,0.3014 0.50388,0.6757 0,0 0.48161,7.1904 0.48161,10.7953002 0,3.605 -0.48161,10.7954 -0.48161,10.7954 -0.0167,0.3737 -0.22473,0.6757 -0.50388,0.6757 h -0.0543 c -0.27915,0 -0.50387,-0.3014 -0.50387,-0.6757 0,0 -0.48162,-7.1904 -0.48162,-10.7954 0,-3.6049002 0.48162,-10.7953002 0.48162,-10.7953002 0.0167,-0.3737 0.22472,-0.6757 0.50387,-0.6757 z"
       id="rect4781"
       inkscape:connector-curvature="0"
       sodipodi:nodetypes="sssssssssss" />
  </g>
</svg>
