<?xml version="1.0" encoding="UTF-8" standalone="no"?>
<!-- Created with Inkscape (http://www.inkscape.org/) -->

<svg
   width="67.862785"
   height="483.87512"
   viewBox="0 0 17.955362 128.0253"
   version="1.1"
   id="svg1664"
   inkscape:version="1.1 (c68e22c387, 2021-05-23)"
   sodipodi:docname="trident.svg"
   xmlns:inkscape="http://www.inkscape.org/namespaces/inkscape"
   xmlns:sodipodi="http://sodipodi.sourceforge.net/DTD/sodipodi-0.dtd"
   xmlns="http://www.w3.org/2000/svg"
   xmlns:svg="http://www.w3.org/2000/svg">
  <sodipodi:namedview
     id="namedview1666"
     pagecolor="#e5e5e5"
     bordercolor="#666666"
     borderopacity="1.0"
     inkscape:pageshadow="2"
     inkscape:pageopacity="0"
     inkscape:pagecheckerboard="true"
     inkscape:document-units="mm"
     showgrid="false"
     units="px"
     inkscape:zoom="0.74118967"
     inkscape:cx="-120.75182"
     inkscape:cy="103.21245"
     inkscape:window-width="1920"
     inkscape:window-height="1017"
     inkscape:window-x="1912"
     inkscape:window-y="-8"
     inkscape:window-maximized="1"
     inkscape:current-layer="layer1"
     fit-margin-top="0"
     fit-margin-left="0"
     fit-margin-right="0"
     fit-margin-bottom="0" />
  <defs
     id="defs1661" />
  <g
     inkscape:label="Layer 1"
     inkscape:groupmode="layer"
     id="layer1"
     transform="translate(36.107488,72.222981)">
    <path
       style="fill:#000000;fill-opacity:1;fill-rule:evenodd;stroke:none;stroke-width:0.264583px;stroke-linecap:butt;stroke-linejoin:miter;stroke-opacity:1"
       d="m -27.130138,-72.222981 -2.1399,22.71598 -0.023,11.07427 c -2.6746,-3.08589 -3.1854,-5.36784 -2.2138,-8.88267 -1.0937,-1.29387 -0.9139,-2.58755 -1.1152,-3.88142 -1.6832,4.70345 -2.6091,10.99027 -0.8164,15.39235 0.6242,0.54576 2.0077,2.2497 2.2654,2.91764 l -0.8955,-2.91661 c 1.3178,0.008 2.1626,0.0579 2.6618,0.33795 0.2554,0.14328 0.5008,0.98444 0.7111,1.97197 l -0.8263,0.36536 -2.3926,0.52917 c -1.6798,0.37155 -2.9228,-1.67018 -2.9228,-1.67018 -1.8221,1.82205 -1.5599,3.43199 0,5.37278 0,0 1.7999,-1.36876 2.8649,-1.65414 0.8076,-0.21641 2.5084,0 2.5084,0 l 0.4056,1.23248 0.9778,0.87799 v 77.765267 h -1.1752 l -1.2237,1.223698 1.017,1.016978 c 0.3706,0.906807 0.4482,1.856287 0.153,2.810697 h 0.9819 v 0.89657 c 0.5159,0.001 0.9095,0.18624 1.1978,0.52916 0.2883,-0.34298 0.682,-0.52916 1.1979,-0.52916 v -0.89657 h 0.9818 c -0.2952,-0.95438 -0.2176,-1.90389 0.153,-2.810697 l 1.017,-1.016978 -1.2237,-1.223698 h -1.1751 v -77.765267 l 0.9777,-0.87799 0.4056,-1.23248 c 0,0 1.7008,-0.21641 2.5084,0 1.0651,0.2854 2.865,1.65414 2.865,1.65414 1.5599,-1.94079 1.822,-3.55078 0,-5.37278 0,0 -1.202,1.67018 -2.9224,1.67018 l -2.3926,-0.52917 -0.8268,-0.36586 c 0.2103,-0.98735 0.4557,-1.82825 0.7111,-1.97147 0.4992,-0.28 1.344,-0.32945 2.6618,-0.33745 l -0.8955,2.91611 c 0.2577,-0.66789 1.6412,-2.37186 2.2655,-2.91764 1.7926,-4.40211 0.8667,-10.68885 -0.8165,-15.39235 -0.2013,1.2939 -0.021,2.58763 -1.1152,3.88142 0.9716,3.51491 0.4608,5.79675 -2.2138,8.88267 l -0.023,-11.07427 z"
       id="path4532"
       inkscape:connector-curvature="0" />
  </g>
</svg>
